<svg width="1219" height="327" viewBox="0 0 1219 327" fill="none" xmlns="http://www.w3.org/2000/svg">
<g id="dino_line">
<g id="dino_pix_ 1" clip-path="url(#clip0_1743_1168)">
<g id="Layer 2">
<g id="Layer 1">
<path id="Vector" d="M1205.23 121.65H1218.8V135.234H1205.23V121.65Z" stroke="white" stroke-miterlimit="10"/>
<path id="Vector_2" d="M1205.23 135.236H1218.8V148.82H1205.23V135.236Z" stroke="white" stroke-miterlimit="10"/>
<path id="Vector_3" d="M1205.23 148.818H1218.8V162.402H1205.23V148.818Z" stroke="white" stroke-miterlimit="10"/>
<path id="Vector_4" d="M1205.23 162.402H1218.8V175.986H1205.23V162.402Z" stroke="white" stroke-miterlimit="10"/>
<path id="Vector_5" d="M1205.23 175.984H1218.8V189.568H1205.23V175.984Z" stroke="white" stroke-miterlimit="10"/>
<path id="Vector_6" d="M1205.23 189.568H1218.8V203.152H1205.23V189.568Z" stroke="white" stroke-miterlimit="10"/>
<path id="Vector_7" d="M1205.23 203.152H1218.8V216.736H1205.23V203.152Z" stroke="white" stroke-miterlimit="10"/>
<path id="Vector_8" d="M1191.65 148.818H1205.23V162.402H1191.65V148.818Z" stroke="white" stroke-miterlimit="10"/>
<path id="Vector_9" d="M1191.65 162.402H1205.23V175.986H1191.65V162.402Z" stroke="white" stroke-miterlimit="10"/>
<path id="Vector_10" d="M1191.65 175.984H1205.23V189.568H1191.65V175.984Z" stroke="white" stroke-miterlimit="10"/>
<path id="Vector_11" d="M1191.65 189.568H1205.23V203.152H1191.65V189.568Z" stroke="white" stroke-miterlimit="10"/>
<path id="Vector_12" d="M1191.65 203.152H1205.23V216.736H1191.65V203.152Z" stroke="white" stroke-miterlimit="10"/>
<path id="Vector_13" d="M1191.65 216.736H1205.23V230.32H1191.65V216.736Z" stroke="white" stroke-miterlimit="10"/>
<path id="Vector_14" d="M1178.08 162.402H1191.65V175.986H1178.08V162.402Z" stroke="white" stroke-miterlimit="10"/>
<path id="Vector_15" d="M1178.08 175.984H1191.65V189.568H1178.08V175.984Z" stroke="white" stroke-miterlimit="10"/>
<path id="Vector_16" d="M1178.08 189.568H1191.65V203.152H1178.08V189.568Z" stroke="white" stroke-miterlimit="10"/>
<path id="Vector_17" d="M1178.08 203.152H1191.65V216.736H1178.08V203.152Z" stroke="white" stroke-miterlimit="10"/>
<path id="Vector_18" d="M1178.08 216.736H1191.65V230.32H1178.08V216.736Z" stroke="white" stroke-miterlimit="10"/>
<path id="Vector_19" d="M1178.08 230.318H1191.65V243.902H1178.08V230.318Z" stroke="white" stroke-miterlimit="10"/>
<path id="Vector_20" d="M1164.5 177.584H1178.07V191.167H1164.5V177.584Z" stroke="white" stroke-miterlimit="10"/>
<path id="Vector_21" d="M1164.5 191.166H1178.07V204.749H1164.5V191.166Z" stroke="white" stroke-miterlimit="10"/>
<path id="Vector_22" d="M1164.5 204.75H1178.07V218.333H1164.5V204.75Z" stroke="white" stroke-miterlimit="10"/>
<path id="Vector_23" d="M1164.5 218.332H1178.07V231.915H1164.5V218.332Z" stroke="white" stroke-miterlimit="10"/>
<path id="Vector_24" d="M1164.5 231.916H1178.07V245.499H1164.5V231.916Z" stroke="white" stroke-miterlimit="10"/>
<path id="Vector_25" d="M1164.5 245.5H1178.07V259.083H1164.5V245.5Z" stroke="white" stroke-miterlimit="10"/>
<path id="Vector_26" d="M1150.92 177.584H1164.5V191.167H1150.92V177.584Z" stroke="white" stroke-miterlimit="10"/>
<path id="Vector_27" d="M1150.92 191.166H1164.5V204.749H1150.92V191.166Z" stroke="white" stroke-miterlimit="10"/>
<path id="Vector_28" d="M1150.92 204.75H1164.5V218.333H1150.92V204.75Z" stroke="white" stroke-miterlimit="10"/>
<path id="Vector_29" d="M1150.92 218.332H1164.5V231.915H1150.92V218.332Z" stroke="white" stroke-miterlimit="10"/>
<path id="Vector_30" d="M1150.92 231.916H1164.5V245.499H1150.92V231.916Z" stroke="white" stroke-miterlimit="10"/>
<path id="Vector_31" d="M1150.92 245.5H1164.5V259.083H1150.92V245.5Z" stroke="white" stroke-miterlimit="10"/>
<path id="Vector_32" d="M1150.92 259.084H1164.5V272.667H1150.92V259.084Z" stroke="white" stroke-miterlimit="10"/>
<path id="Vector_33" d="M1137.35 177.584H1150.93V191.167H1137.35V177.584Z" stroke="white" stroke-miterlimit="10"/>
<path id="Vector_34" d="M1137.35 164H1150.93V177.583H1137.35V164Z" stroke="white" stroke-miterlimit="10"/>
<path id="Vector_35" d="M1137.35 272.666H1150.93V286.25H1137.35V272.666Z" stroke="white" stroke-miterlimit="10"/>
<path id="Vector_36" d="M1137.35 191.166H1150.93V204.749H1137.35V191.166Z" stroke="white" stroke-miterlimit="10"/>
<path id="Vector_37" d="M1137.35 204.75H1150.93V218.334H1137.35V204.75Z" stroke="white" stroke-miterlimit="10"/>
<path id="Vector_38" d="M1137.35 218.332H1150.93V231.915H1137.35V218.332Z" stroke="white" stroke-miterlimit="10"/>
<path id="Vector_39" d="M1137.35 231.916H1150.93V245.499H1137.35V231.916Z" stroke="white" stroke-miterlimit="10"/>
<path id="Vector_40" d="M1137.35 245.5H1150.93V259.083H1137.35V245.5Z" stroke="white" stroke-miterlimit="10"/>
<path id="Vector_41" d="M1137.35 259.084H1150.93V272.667H1137.35V259.084Z" stroke="white" stroke-miterlimit="10"/>
<path id="Vector_42" d="M1137.35 313.418H1150.93V327.001H1137.35V313.418Z" stroke="white" stroke-miterlimit="10"/>
<path id="Vector_43" d="M1137.35 286.25H1150.93V299.833H1137.35V286.25Z" stroke="white" stroke-miterlimit="10"/>
<path id="Vector_44" d="M1123.78 177.584H1137.35V191.167H1123.78V177.584Z" stroke="white" stroke-miterlimit="10"/>
<path id="Vector_45" d="M1123.78 164H1137.35V177.583H1123.78V164Z" stroke="white" stroke-miterlimit="10"/>
<path id="Vector_46" d="M1123.78 150.416H1137.35V163.999H1123.78V150.416Z" stroke="white" stroke-miterlimit="10"/>
<path id="Vector_47" d="M1123.78 272.666H1137.35V286.249H1123.78V272.666Z" stroke="white" stroke-miterlimit="10"/>
<path id="Vector_48" d="M1123.78 191.166H1137.35V204.749H1123.78V191.166Z" stroke="white" stroke-miterlimit="10"/>
<path id="Vector_49" d="M1123.78 204.75H1137.35V218.333H1123.78V204.75Z" stroke="white" stroke-miterlimit="10"/>
<path id="Vector_50" d="M1123.78 218.332H1137.35V231.915H1123.78V218.332Z" stroke="white" stroke-miterlimit="10"/>
<path id="Vector_51" d="M1123.78 231.916H1137.35V245.499H1123.78V231.916Z" stroke="white" stroke-miterlimit="10"/>
<path id="Vector_52" d="M1123.78 245.5H1137.35V259.083H1123.78V245.5Z" stroke="white" stroke-miterlimit="10"/>
<path id="Vector_53" d="M1123.78 259.084H1137.35V272.667H1123.78V259.084Z" stroke="white" stroke-miterlimit="10"/>
<path id="Vector_54" d="M1123.78 313.418H1137.35V327.001H1123.78V313.418Z" stroke="white" stroke-miterlimit="10"/>
<path id="Vector_55" d="M1123.78 286.25H1137.35V299.833H1123.78V286.25Z" stroke="white" stroke-miterlimit="10"/>
<path id="Vector_56" d="M1110.2 164H1123.78V177.583H1110.2V164Z" stroke="white" stroke-miterlimit="10"/>
<path id="Vector_57" d="M1110.2 150.416H1123.78V163.999H1110.2V150.416Z" stroke="white" stroke-miterlimit="10"/>
<path id="Vector_58" d="M1110.2 136.834H1123.78V150.417H1110.2V136.834Z" stroke="white" stroke-miterlimit="10"/>
<path id="Vector_59" d="M1110.2 259.084H1123.78V272.667H1110.2V259.084Z" stroke="white" stroke-miterlimit="10"/>
<path id="Vector_60" d="M1110.2 177.584H1123.78V191.167H1110.2V177.584Z" stroke="white" stroke-miterlimit="10"/>
<path id="Vector_61" d="M1110.2 191.166H1123.78V204.749H1110.2V191.166Z" stroke="white" stroke-miterlimit="10"/>
<path id="Vector_62" d="M1110.2 204.75H1123.78V218.333H1110.2V204.75Z" stroke="white" stroke-miterlimit="10"/>
<path id="Vector_63" d="M1110.2 218.332H1123.78V231.915H1110.2V218.332Z" stroke="white" stroke-miterlimit="10"/>
<path id="Vector_64" d="M1110.2 231.916H1123.78V245.499H1110.2V231.916Z" stroke="white" stroke-miterlimit="10"/>
<path id="Vector_65" d="M1110.2 245.5H1123.78V259.083H1110.2V245.5Z" stroke="white" stroke-miterlimit="10"/>
<path id="Vector_66" d="M1110.2 272.666H1123.78V286.249H1110.2V272.666Z" stroke="white" stroke-miterlimit="10"/>
<path id="Vector_67" d="M1083.05 164H1096.62V177.583H1083.05V164Z" stroke="white" stroke-miterlimit="10"/>
<path id="Vector_68" d="M1083.05 150.416H1096.62V163.999H1083.05V150.416Z" stroke="white" stroke-miterlimit="10"/>
<path id="Vector_69" d="M1083.05 136.834H1096.63V150.417H1083.05V136.834Z" stroke="white" stroke-miterlimit="10"/>
<path id="Vector_70" d="M1083.05 123.25H1096.62V136.833H1083.05V123.25Z" stroke="white" stroke-miterlimit="10"/>
<path id="Vector_71" d="M1069.48 150.416H1083.05V163.999H1069.48V150.416Z" stroke="white" stroke-miterlimit="10"/>
<path id="Vector_72" d="M1069.48 136.834H1083.05V150.417H1069.48V136.834Z" stroke="white" stroke-miterlimit="10"/>
<path id="Vector_73" d="M1069.48 123.25H1083.05V136.833H1069.48V123.25Z" stroke="white" stroke-miterlimit="10"/>
<path id="Vector_74" d="M1083.05 259.084H1096.63V272.667H1083.05V259.084Z" stroke="white" stroke-miterlimit="10"/>
<path id="Vector_75" d="M1083.05 177.584H1096.62V191.167H1083.05V177.584Z" stroke="white" stroke-miterlimit="10"/>
<path id="Vector_76" d="M1083.05 191.166H1096.62V204.749H1083.05V191.166Z" stroke="white" stroke-miterlimit="10"/>
<path id="Vector_77" d="M1083.05 204.75H1096.63V218.334H1083.05V204.75Z" stroke="white" stroke-miterlimit="10"/>
<path id="Vector_78" d="M1083.05 218.332H1096.62V231.915H1083.05V218.332Z" stroke="white" stroke-miterlimit="10"/>
<path id="Vector_79" d="M1083.05 231.916H1096.62V245.499H1083.05V231.916Z" stroke="white" stroke-miterlimit="10"/>
<path id="Vector_80" d="M1083.05 245.5H1096.62V259.083H1083.05V245.5Z" stroke="white" stroke-miterlimit="10"/>
<path id="Vector_81" d="M1083.05 272.666H1096.63V286.25H1083.05V272.666Z" stroke="white" stroke-miterlimit="10"/>
<path id="Vector_82" d="M1096.62 164H1110.2V177.583H1096.62V164Z" stroke="white" stroke-miterlimit="10"/>
<path id="Vector_83" d="M1096.62 150.416H1110.2V163.999H1096.62V150.416Z" stroke="white" stroke-miterlimit="10"/>
<path id="Vector_84" d="M1096.62 136.834H1110.2V150.417H1096.62V136.834Z" stroke="white" stroke-miterlimit="10"/>
<path id="Vector_85" d="M1096.62 259.084H1110.2V272.667H1096.62V259.084Z" stroke="white" stroke-miterlimit="10"/>
<path id="Vector_86" d="M1096.62 177.584H1110.2V191.167H1096.62V177.584Z" stroke="white" stroke-miterlimit="10"/>
<path id="Vector_87" d="M1096.62 191.166H1110.2V204.749H1096.62V191.166Z" stroke="white" stroke-miterlimit="10"/>
<path id="Vector_88" d="M1096.62 204.75H1110.2V218.333H1096.62V204.75Z" stroke="white" stroke-miterlimit="10"/>
<path id="Vector_89" d="M1096.62 218.332H1110.2V231.915H1096.62V218.332Z" stroke="white" stroke-miterlimit="10"/>
<path id="Vector_90" d="M1096.62 231.916H1110.2V245.499H1096.62V231.916Z" stroke="white" stroke-miterlimit="10"/>
<path id="Vector_91" d="M1096.62 245.5H1110.2V259.083H1096.62V245.5Z" stroke="white" stroke-miterlimit="10"/>
<path id="Vector_92" d="M1137.35 299.834H1150.93V313.417H1137.35V299.834Z" stroke="white" stroke-miterlimit="10"/>
<path id="Vector_93" d="M1069.48 177.584H1083.05V191.167H1069.48V177.584Z" stroke="white" stroke-miterlimit="10"/>
<path id="Vector_94" d="M1069.48 164H1083.05V177.583H1069.48V164Z" stroke="white" stroke-miterlimit="10"/>
<path id="Vector_95" d="M1069.48 272.666H1083.05V286.249H1069.48V272.666Z" stroke="white" stroke-miterlimit="10"/>
<path id="Vector_96" d="M1069.48 191.166H1083.05V204.749H1069.48V191.166Z" stroke="white" stroke-miterlimit="10"/>
<path id="Vector_97" d="M1069.48 204.75H1083.05V218.333H1069.48V204.75Z" stroke="white" stroke-miterlimit="10"/>
<path id="Vector_98" d="M1069.48 55.334H1083.05V68.9173H1069.48V55.334Z" stroke="white" stroke-miterlimit="10"/>
<path id="Vector_99" d="M1069.48 41.75H1083.05V55.3333H1069.48V41.75Z" stroke="white" stroke-miterlimit="10"/>
<path id="Vector_100" d="M1069.48 14.582H1083.05V28.1654H1069.48V14.582Z" stroke="white" stroke-miterlimit="10"/>
<path id="Vector_101" d="M1069.48 82.5H1083.05V96.0833H1069.48V82.5Z" stroke="white" stroke-miterlimit="10"/>
<path id="Vector_102" d="M1069.48 68.916H1083.05V82.4993H1069.48V68.916Z" stroke="white" stroke-miterlimit="10"/>
<path id="Vector_103" d="M1069.48 96.082H1083.05V109.665H1069.48V96.082Z" stroke="white" stroke-miterlimit="10"/>
<path id="Vector_104" d="M1069.48 109.668H1083.05V123.251H1069.48V109.668Z" stroke="white" stroke-miterlimit="10"/>
<path id="Vector_105" d="M1069.48 218.332H1083.05V231.915H1069.48V218.332Z" stroke="white" stroke-miterlimit="10"/>
<path id="Vector_106" d="M1069.48 231.916H1083.05V245.499H1069.48V231.916Z" stroke="white" stroke-miterlimit="10"/>
<path id="Vector_107" d="M1069.48 245.5H1083.05V259.083H1069.48V245.5Z" stroke="white" stroke-miterlimit="10"/>
<path id="Vector_108" d="M1069.48 259.084H1083.05V272.667H1069.48V259.084Z" stroke="white" stroke-miterlimit="10"/>
<path id="Vector_109" d="M1055.9 136.834H1069.48V150.417H1055.9V136.834Z" stroke="white" stroke-miterlimit="10"/>
<path id="Vector_110" d="M1055.9 123.25H1069.48V136.833H1055.9V123.25Z" stroke="white" stroke-miterlimit="10"/>
<path id="Vector_111" d="M1055.9 109.668H1069.48V123.251H1055.9V109.668Z" stroke="white" stroke-miterlimit="10"/>
<path id="Vector_112" d="M1055.9 164H1069.48V177.583H1055.9V164Z" stroke="white" stroke-miterlimit="10"/>
<path id="Vector_113" d="M1055.9 150.416H1069.48V163.999H1055.9V150.416Z" stroke="white" stroke-miterlimit="10"/>
<path id="Vector_114" d="M1055.9 177.584H1069.48V191.167H1055.9V177.584Z" stroke="white" stroke-miterlimit="10"/>
<path id="Vector_115" d="M1055.9 191.166H1069.48V204.749H1055.9V191.166Z" stroke="white" stroke-miterlimit="10"/>
<path id="Vector_116" d="M1055.9 41.75H1069.48V55.3333H1055.9V41.75Z" stroke="white" stroke-miterlimit="10"/>
<path id="Vector_117" d="M1055.9 14.582H1069.48V28.1654H1055.9V14.582Z" stroke="white" stroke-miterlimit="10"/>
<path id="Vector_118" d="M1055.9 1H1069.48V14.5833H1055.9V1Z" stroke="white" stroke-miterlimit="10"/>
<path id="Vector_119" d="M1055.9 68.916H1069.48V82.4993H1055.9V68.916Z" stroke="white" stroke-miterlimit="10"/>
<path id="Vector_120" d="M1055.9 55.334H1069.48V68.9173H1055.9V55.334Z" stroke="white" stroke-miterlimit="10"/>
<path id="Vector_121" d="M1055.9 82.5H1069.48V96.0833H1055.9V82.5Z" stroke="white" stroke-miterlimit="10"/>
<path id="Vector_122" d="M1055.9 96.082H1069.48V109.665H1055.9V96.082Z" stroke="white" stroke-miterlimit="10"/>
<path id="Vector_123" d="M1055.9 204.75H1069.48V218.333H1055.9V204.75Z" stroke="white" stroke-miterlimit="10"/>
<path id="Vector_124" d="M1055.9 218.332H1069.48V231.915H1055.9V218.332Z" stroke="white" stroke-miterlimit="10"/>
<path id="Vector_125" d="M1028.75 136.834H1042.32V150.417H1028.75V136.834Z" stroke="white" stroke-miterlimit="10"/>
<path id="Vector_126" d="M1028.75 123.25H1042.32V136.833H1028.75V123.25Z" stroke="white" stroke-miterlimit="10"/>
<path id="Vector_127" d="M1028.75 109.668H1042.32V123.251H1028.75V109.668Z" stroke="white" stroke-miterlimit="10"/>
<path id="Vector_128" d="M1028.75 164H1042.32V177.583H1028.75V164Z" stroke="white" stroke-miterlimit="10"/>
<path id="Vector_129" d="M1028.75 150.416H1042.32V163.999H1028.75V150.416Z" stroke="white" stroke-miterlimit="10"/>
<path id="Vector_130" d="M1028.75 177.584H1042.32V191.167H1028.75V177.584Z" stroke="white" stroke-miterlimit="10"/>
<path id="Vector_131" d="M1028.75 191.166H1042.32V204.749H1028.75V191.166Z" stroke="white" stroke-miterlimit="10"/>
<path id="Vector_132" d="M1028.75 41.75H1042.32V55.3333H1028.75V41.75Z" stroke="white" stroke-miterlimit="10"/>
<path id="Vector_133" d="M1028.75 14.582H1042.32V28.1654H1028.75V14.582Z" stroke="white" stroke-miterlimit="10"/>
<path id="Vector_134" d="M1028.75 1H1042.32V14.5833H1028.75V1Z" stroke="white" stroke-miterlimit="10"/>
<path id="Vector_135" d="M1028.75 68.916H1042.32V82.4993H1028.75V68.916Z" stroke="white" stroke-miterlimit="10"/>
<path id="Vector_136" d="M1028.75 55.334H1042.32V68.9173H1028.75V55.334Z" stroke="white" stroke-miterlimit="10"/>
<path id="Vector_137" d="M1028.75 82.5H1042.32V96.0833H1028.75V82.5Z" stroke="white" stroke-miterlimit="10"/>
<path id="Vector_138" d="M1028.75 96.082H1042.32V109.665H1028.75V96.082Z" stroke="white" stroke-miterlimit="10"/>
<path id="Vector_139" d="M1028.75 204.75H1042.32V218.333H1028.75V204.75Z" stroke="white" stroke-miterlimit="10"/>
<path id="Vector_140" d="M1015.17 136.834H1028.75V150.417H1015.17V136.834Z" stroke="white" stroke-miterlimit="10"/>
<path id="Vector_141" d="M1015.17 123.25H1028.75V136.833H1015.17V123.25Z" stroke="white" stroke-miterlimit="10"/>
<path id="Vector_142" d="M1015.17 109.668H1028.75V123.251H1015.17V109.668Z" stroke="white" stroke-miterlimit="10"/>
<path id="Vector_143" d="M1015.17 164H1028.75V177.583H1015.17V164Z" stroke="white" stroke-miterlimit="10"/>
<path id="Vector_144" d="M1015.17 150.416H1028.75V163.999H1015.17V150.416Z" stroke="white" stroke-miterlimit="10"/>
<path id="Vector_145" d="M1001.6 150.416H1015.18V163.999H1001.6V150.416Z" stroke="white" stroke-miterlimit="10"/>
<path id="Vector_146" d="M988.027 164H1001.6V177.583H988.027V164Z" stroke="white" stroke-miterlimit="10"/>
<path id="Vector_147" d="M988.027 150.416H1001.6V163.999H988.027V150.416Z" stroke="white" stroke-miterlimit="10"/>
<path id="Vector_148" d="M1015.17 177.584H1028.75V191.167H1015.17V177.584Z" stroke="white" stroke-miterlimit="10"/>
<path id="Vector_149" d="M1015.17 191.166H1028.75V204.749H1015.17V191.166Z" stroke="white" stroke-miterlimit="10"/>
<path id="Vector_150" d="M1015.17 41.75H1028.75V55.3333H1015.17V41.75Z" stroke="white" stroke-miterlimit="10"/>
<path id="Vector_151" d="M1015.17 14.582H1028.75V28.1654H1015.17V14.582Z" stroke="white" stroke-miterlimit="10"/>
<path id="Vector_152" d="M1015.17 1H1028.75V14.5833H1015.17V1Z" stroke="white" stroke-miterlimit="10"/>
<path id="Vector_153" d="M1015.17 68.916H1028.75V82.4993H1015.17V68.916Z" stroke="white" stroke-miterlimit="10"/>
<path id="Vector_154" d="M1015.17 55.334H1028.75V68.9173H1015.17V55.334Z" stroke="white" stroke-miterlimit="10"/>
<path id="Vector_155" d="M1001.6 41.75H1015.18V55.3333H1001.6V41.75Z" stroke="white" stroke-miterlimit="10"/>
<path id="Vector_156" d="M1001.6 14.582H1015.18V28.1654H1001.6V14.582Z" stroke="white" stroke-miterlimit="10"/>
<path id="Vector_157" d="M1001.6 1H1015.18V14.5833H1001.6V1Z" stroke="white" stroke-miterlimit="10"/>
<path id="Vector_158" d="M1001.6 68.916H1015.18V82.4993H1001.6V68.916Z" stroke="white" stroke-miterlimit="10"/>
<path id="Vector_159" d="M988.027 41.75H1001.6V55.3333H988.027V41.75Z" stroke="white" stroke-miterlimit="10"/>
<path id="Vector_160" d="M988.027 14.582H1001.6V28.1654H988.027V14.582Z" stroke="white" stroke-miterlimit="10"/>
<path id="Vector_161" d="M988.027 1H1001.6V14.5833H988.027V1Z" stroke="white" stroke-miterlimit="10"/>
<path id="Vector_162" d="M988.027 68.916H1001.6V82.4993H988.027V68.916Z" stroke="white" stroke-miterlimit="10"/>
<path id="Vector_163" d="M974.45 41.75H988.025V55.3333H974.45V41.75Z" stroke="white" stroke-miterlimit="10"/>
<path id="Vector_164" d="M974.45 14.582H988.025V28.1654H974.45V14.582Z" stroke="white" stroke-miterlimit="10"/>
<path id="Vector_165" d="M974.45 1H988.025V14.5833H974.45V1Z" stroke="white" stroke-miterlimit="10"/>
<path id="Vector_166" d="M974.45 68.916H988.025V82.4993H974.45V68.916Z" stroke="white" stroke-miterlimit="10"/>
<path id="Vector_167" d="M960.874 41.75H974.449V55.3333H960.874V41.75Z" stroke="white" stroke-miterlimit="10"/>
<path id="Vector_168" d="M960.874 14.582H974.449V28.1654H960.874V14.582Z" stroke="white" stroke-miterlimit="10"/>
<path id="Vector_169" d="M960.874 1H974.449V14.5833H960.874V1Z" stroke="white" stroke-miterlimit="10"/>
<path id="Vector_170" d="M960.874 68.916H974.449V82.4993H960.874V68.916Z" stroke="white" stroke-miterlimit="10"/>
<path id="Vector_171" d="M947.3 41.75H960.875V55.3333H947.3V41.75Z" stroke="white" stroke-miterlimit="10"/>
<path id="Vector_172" d="M947.3 14.582H960.875V28.1654H947.3V14.582Z" stroke="white" stroke-miterlimit="10"/>
<path id="Vector_173" d="M947.3 1H960.875V14.5833H947.3V1Z" stroke="white" stroke-miterlimit="10"/>
<path id="Vector_174" d="M947.3 68.916H960.875V82.4993H947.3V68.916Z" stroke="white" stroke-miterlimit="10"/>
<path id="Vector_175" d="M933.726 41.75H947.301V55.3333H933.726V41.75Z" stroke="white" stroke-miterlimit="10"/>
<path id="Vector_176" d="M1001.6 55.334H1015.18V68.9173H1001.6V55.334Z" stroke="white" stroke-miterlimit="10"/>
<path id="Vector_177" d="M988.027 55.334H1001.6V68.9173H988.027V55.334Z" stroke="white" stroke-miterlimit="10"/>
<path id="Vector_178" d="M974.45 55.334H988.025V68.9173H974.45V55.334Z" stroke="white" stroke-miterlimit="10"/>
<path id="Vector_179" d="M960.874 55.334H974.449V68.9173H960.874V55.334Z" stroke="white" stroke-miterlimit="10"/>
<path id="Vector_180" d="M947.3 55.334H960.875V68.9173H947.3V55.334Z" stroke="white" stroke-miterlimit="10"/>
<path id="Vector_181" d="M933.726 55.334H947.301V68.9173H933.726V55.334Z" stroke="white" stroke-miterlimit="10"/>
<path id="Vector_182" d="M933.726 14.582H947.301V28.1654H933.726V14.582Z" stroke="white" stroke-miterlimit="10"/>
<path id="Vector_183" d="M933.726 68.916H947.301V82.4993H933.726V68.916Z" stroke="white" stroke-miterlimit="10"/>
<path id="Vector_184" d="M1015.17 82.5H1028.75V96.0833H1015.17V82.5Z" stroke="white" stroke-miterlimit="10"/>
<path id="Vector_185" d="M1001.6 82.5H1015.18V96.0833H1001.6V82.5Z" stroke="white" stroke-miterlimit="10"/>
<path id="Vector_186" d="M1015.17 96.082H1028.75V109.665H1015.17V96.082Z" stroke="white" stroke-miterlimit="10"/>
<path id="Vector_187" d="M1015.17 204.75H1028.75V218.334H1015.17V204.75Z" stroke="white" stroke-miterlimit="10"/>
<path id="Vector_188" d="M1028.75 218.332H1042.32V231.915H1028.75V218.332Z" stroke="white" stroke-miterlimit="10"/>
<path id="Vector_189" d="M1055.9 231.916H1069.48V245.499H1055.9V231.916Z" stroke="white" stroke-miterlimit="10"/>
<path id="Vector_190" d="M1042.33 136.834H1055.9V150.417H1042.33V136.834Z" stroke="white" stroke-miterlimit="10"/>
<path id="Vector_191" d="M1042.33 123.25H1055.9V136.833H1042.33V123.25Z" stroke="white" stroke-miterlimit="10"/>
<path id="Vector_192" d="M1042.33 109.668H1055.9V123.251H1042.33V109.668Z" stroke="white" stroke-miterlimit="10"/>
<path id="Vector_193" d="M1042.33 164H1055.9V177.583H1042.33V164Z" stroke="white" stroke-miterlimit="10"/>
<path id="Vector_194" d="M1042.33 150.416H1055.9V163.999H1042.33V150.416Z" stroke="white" stroke-miterlimit="10"/>
<path id="Vector_195" d="M1042.33 177.584H1055.9V191.167H1042.33V177.584Z" stroke="white" stroke-miterlimit="10"/>
<path id="Vector_196" d="M1042.33 191.166H1055.9V204.749H1042.33V191.166Z" stroke="white" stroke-miterlimit="10"/>
<path id="Vector_197" d="M1042.33 41.75H1055.9V55.3333H1042.33V41.75Z" stroke="white" stroke-miterlimit="10"/>
<path id="Vector_198" d="M1069.48 28.166H1083.05V41.7493H1069.48V28.166Z" stroke="white" stroke-miterlimit="10"/>
<path id="Vector_199" d="M1055.9 28.166H1069.48V41.7493H1055.9V28.166Z" stroke="white" stroke-miterlimit="10"/>
<path id="Vector_200" d="M1028.75 28.166H1042.32V41.7493H1028.75V28.166Z" stroke="white" stroke-miterlimit="10"/>
<path id="Vector_201" d="M1015.17 28.166H1028.75V41.7493H1015.17V28.166Z" stroke="white" stroke-miterlimit="10"/>
<path id="Vector_202" d="M1001.6 28.166H1015.18V41.7493H1001.6V28.166Z" stroke="white" stroke-miterlimit="10"/>
<path id="Vector_203" d="M988.027 28.166H1001.6V41.7493H988.027V28.166Z" stroke="white" stroke-miterlimit="10"/>
<path id="Vector_204" d="M974.45 28.166H988.025V41.7493H974.45V28.166Z" stroke="white" stroke-miterlimit="10"/>
<path id="Vector_205" d="M960.874 28.166H974.449V41.7493H960.874V28.166Z" stroke="white" stroke-miterlimit="10"/>
<path id="Vector_206" d="M947.3 28.166H960.875V41.7493H947.3V28.166Z" stroke="white" stroke-miterlimit="10"/>
<path id="Vector_207" d="M933.726 28.166H947.301V41.7493H933.726V28.166Z" stroke="white" stroke-miterlimit="10"/>
<path id="Vector_208" d="M1042.33 28.166H1055.9V41.7493H1042.33V28.166Z" stroke="white" stroke-miterlimit="10"/>
<path id="Vector_209" d="M1042.33 1H1055.9V14.5833H1042.33V1Z" stroke="white" stroke-miterlimit="10"/>
<path id="Vector_210" d="M1042.33 68.916H1055.9V82.4993H1042.33V68.916Z" stroke="white" stroke-miterlimit="10"/>
<path id="Vector_211" d="M1042.33 55.334H1055.9V68.9173H1042.33V55.334Z" stroke="white" stroke-miterlimit="10"/>
<path id="Vector_212" d="M1042.33 82.5H1055.9V96.0833H1042.33V82.5Z" stroke="white" stroke-miterlimit="10"/>
<path id="Vector_213" d="M1042.33 96.082H1055.9V109.665H1042.33V96.082Z" stroke="white" stroke-miterlimit="10"/>
<path id="Vector_214" d="M1001.6 96.082H1015.18V109.665H1001.6V96.082Z" stroke="white" stroke-miterlimit="10"/>
<path id="Vector_215" d="M974.45 96.082H988.025V109.665H974.45V96.082Z" stroke="white" stroke-miterlimit="10"/>
<path id="Vector_216" d="M960.874 96.082H974.449V109.665H960.874V96.082Z" stroke="white" stroke-miterlimit="10"/>
<path id="Vector_217" d="M988.027 96.082H1001.6V109.665H988.027V96.082Z" stroke="white" stroke-miterlimit="10"/>
<path id="Vector_218" d="M1042.33 204.75H1055.9V218.333H1042.33V204.75Z" stroke="white" stroke-miterlimit="10"/>
<path id="Vector_219" d="M1042.33 218.332H1055.9V231.915H1042.33V218.332Z" stroke="white" stroke-miterlimit="10"/>
<path id="Vector_220" d="M1042.33 231.916H1055.9V245.499H1042.33V231.916Z" stroke="white" stroke-miterlimit="10"/>
<path id="Vector_221" d="M1055.9 245.5H1069.48V259.083H1055.9V245.5Z" stroke="white" stroke-miterlimit="10"/>
<path id="Vector_222" d="M1069.48 313.418H1083.05V327.001H1069.48V313.418Z" stroke="white" stroke-miterlimit="10"/>
<path id="Vector_223" d="M1069.48 286.25H1083.05V299.833H1069.48V286.25Z" stroke="white" stroke-miterlimit="10"/>
<path id="Vector_224" d="M1055.9 313.418H1069.48V327.001H1055.9V313.418Z" stroke="white" stroke-miterlimit="10"/>
<path id="Vector_225" d="M1069.48 299.834H1083.05V313.417H1069.48V299.834Z" stroke="white" stroke-miterlimit="10"/>
</g>
</g>
</g>
<g id="kockak">
<rect id="Rectangle 149" x="1026.5" y="313.5" width="13" height="13" stroke="#232323"/>
<rect id="Rectangle 153" x="954.5" y="313.5" width="13" height="13" stroke="#232323"/>
<rect id="Rectangle 151" x="990.5" y="313.5" width="13" height="13" stroke="#232323"/>
<rect id="Rectangle 154" x="918.5" y="313.5" width="13" height="13" stroke="#232323"/>
<rect id="Rectangle 150" x="1008.5" y="313.5" width="13" height="13" stroke="#232323"/>
<rect id="Rectangle 155" x="936.5" y="313.5" width="13" height="13" stroke="#232323"/>
<rect id="Rectangle 152" x="972.5" y="313.5" width="13" height="13" stroke="#232323"/>
<rect id="Rectangle 156" x="900.5" y="313.5" width="13" height="13" stroke="#232323"/>
<rect id="Rectangle 157" x="879.5" y="313.5" width="13" height="13" stroke="#232323"/>
<rect id="Rectangle 158" x="775.5" y="313.5" width="13" height="13" stroke="#232323"/>
<rect id="Rectangle 159" x="827.5" y="313.5" width="13" height="13" stroke="#232323"/>
<rect id="Rectangle 160" x="723.5" y="313.5" width="13" height="13" stroke="#232323"/>
<rect id="Rectangle 161" x="853.5" y="313.5" width="13" height="13" stroke="#232323"/>
<rect id="Rectangle 162" x="749.5" y="313.5" width="13" height="13" stroke="#232323"/>
<rect id="Rectangle 163" x="801.5" y="313.5" width="13" height="13" stroke="#232323"/>
<rect id="Rectangle 164" x="697.5" y="313.5" width="13" height="13" stroke="#232323"/>
<rect id="Rectangle 165" x="666.5" y="313.5" width="13" height="13" stroke="#232323"/>
<rect id="Rectangle 166" x="530.5" y="313.5" width="13" height="13" stroke="#232323"/>
<rect id="Rectangle 167" x="598.5" y="313.5" width="13" height="13" stroke="#232323"/>
<rect id="Rectangle 168" x="462.5" y="313.5" width="13" height="13" stroke="#232323"/>
<rect id="Rectangle 169" x="632.5" y="313.5" width="13" height="13" stroke="#232323"/>
<rect id="Rectangle 170" x="496.5" y="313.5" width="13" height="13" stroke="#232323"/>
<rect id="Rectangle 171" x="564.5" y="313.5" width="13" height="13" stroke="#232323"/>
<rect id="Rectangle 172" x="428.5" y="313.5" width="13" height="13" stroke="#232323"/>
<rect id="Rectangle 173" x="392.5" y="313.5" width="13" height="13" stroke="#232323"/>
<rect id="Rectangle 174" x="168.5" y="313.5" width="13" height="13" stroke="#232323"/>
<rect id="Rectangle 175" x="280.5" y="313.5" width="13" height="13" stroke="#232323"/>
<rect id="Rectangle 176" x="56.5" y="313.5" width="13" height="13" stroke="#232323"/>
<rect id="Rectangle 177" x="336.5" y="313.5" width="13" height="13" stroke="#232323"/>
<rect id="Rectangle 178" x="112.5" y="313.5" width="13" height="13" stroke="#232323"/>
<rect id="Rectangle 179" x="224.5" y="313.5" width="13" height="13" stroke="#232323"/>
<rect id="Rectangle 180" x="0.5" y="313.5" width="13" height="13" stroke="#232323"/>
</g>
</g>
<defs>
<clipPath id="clip0_1743_1168">
<rect width="286" height="327" fill="white" transform="matrix(-1 0 0 1 1219 0)"/>
</clipPath>
</defs>
</svg>
