<svg xmlns="http://www.w3.org/2000/svg" xmlns:xlink="http://www.w3.org/1999/xlink" viewBox="0 0 313.58 71.6">
  <defs>
    <style>
      .cls-1 {
        fill: #04963f;
      }

      .cls-2 {
        fill: #00e55c;
      }

      .cls-3 {
        fill: url(#linear-gradient);
      }

      .cls-4 {
        fill: url(#linear-gradient-2);
      }
    </style>
    <linearGradient id="linear-gradient" x1="161.32" y1="35.8" x2="313.58" y2="35.8" gradientUnits="userSpaceOnUse">
      <stop offset="0" stop-color="#00c853"/>
      <stop offset="1" stop-color="#00e55c"/>
    </linearGradient>
    <linearGradient id="linear-gradient-2" y1="35.8" x2="152.38" y2="35.8" gradientUnits="userSpaceOnUse">
      <stop offset="0" stop-color="#04963f"/>
      <stop offset="1" stop-color="#02af48"/>
    </linearGradient>
  </defs>
  <g id="Layer_2" data-name="Layer 2">
    <g id="Layer_1-2" data-name="Layer 1">
      <path class="cls-1" d="M5.66,17.87h60.4a5.61,5.61,0,0,0,5.66-5.54V5.66A5.64,5.64,0,0,0,66.06,0H5.66A5.72,5.72,0,0,0,0,5.66v6.67A5.7,5.7,0,0,0,5.66,17.87Z"/>
      <path class="cls-2" d="M247.51,44.8h33.6a5.62,5.62,0,0,0,5.54-5.67V32.59a5.62,5.62,0,0,0-5.54-5.66H259.85V5.66A5.64,5.64,0,0,0,254.18,0h-6.67a5.72,5.72,0,0,0-5.66,5.66V39.13A5.72,5.72,0,0,0,247.51,44.8Z"/>
      <path class="cls-3" d="M307.92,0h-6.55a5.64,5.64,0,0,0-5.66,5.66v48H179.19V44.8h48.07a5.64,5.64,0,0,0,5.66-5.67V5.66A5.64,5.64,0,0,0,227.26,0h-60.4a5.7,5.7,0,0,0-5.54,5.66v6.67a5.67,5.67,0,0,0,5.54,5.54h48.19v9.06H166.86a5.7,5.7,0,0,0-5.54,5.66V65.94a5.7,5.7,0,0,0,5.54,5.66H307.92a5.64,5.64,0,0,0,5.66-5.66V5.66A5.64,5.64,0,0,0,307.92,0Z"/>
      <path class="cls-4" d="M146.72,0H86.32a5.72,5.72,0,0,0-5.66,5.66V26.93h-75A5.72,5.72,0,0,0,0,32.59V65.94A5.72,5.72,0,0,0,5.66,71.6h60.4a5.64,5.64,0,0,0,5.66-5.66V59.27a5.71,5.71,0,0,0-5.66-5.66H18V44.8H80.66V65.94a5.72,5.72,0,0,0,5.66,5.66H93a5.64,5.64,0,0,0,5.66-5.66V44.8h21.27a5.72,5.72,0,0,0,5.66-5.67V32.59a5.72,5.72,0,0,0-5.66-5.66H98.65V17.87h35.87V65.94a5.64,5.64,0,0,0,5.66,5.66h6.54a5.64,5.64,0,0,0,5.66-5.66V5.66A5.64,5.64,0,0,0,146.72,0Z"/>
    </g>
  </g>
</svg>
