<svg width="182" height="170" viewBox="0 0 182 170" fill="none" xmlns="http://www.w3.org/2000/svg">
<g id="kockak_kor">
<g id="kockak">
<rect id="Rectangle 192" x="56.5" y="156.5" width="13" height="13" stroke="#232323"/>
<rect id="Rectangle 193" x="112.5" y="156.5" width="13" height="13" stroke="#232323"/>
<rect id="Rectangle 197" x="84.5" y="156.5" width="13" height="13" stroke="#232323"/>
<rect id="Rectangle 185" x="56.5" y="130.5" width="13" height="13" stroke="#232323"/>
<rect id="Rectangle 186" x="112.5" y="130.5" width="13" height="13" stroke="#232323"/>
<rect id="Rectangle 188" x="140.5" y="130.5" width="13" height="13" stroke="#232323"/>
<rect id="Rectangle 189" x="28.5" y="130.5" width="13" height="13" stroke="#232323"/>
<rect id="Rectangle 190" x="84.5" y="130.5" width="13" height="13" stroke="#232323"/>
<rect id="Rectangle 177" x="168.5" y="104.5" width="13" height="13" stroke="#232323"/>
<rect id="Rectangle 178" x="56.5" y="104.5" width="13" height="13" stroke="#232323"/>
<rect id="Rectangle 179" x="112.5" y="104.5" width="13" height="13" stroke="#232323"/>
<rect id="Rectangle 180" x="0.5" y="104.5" width="13" height="13" stroke="#232323"/>
<rect id="Rectangle 181" x="140.5" y="104.5" width="13" height="13" stroke="#232323"/>
<rect id="Rectangle 182" x="28.5" y="104.5" width="13" height="13" stroke="#232323"/>
<rect id="Rectangle 183" x="84.5" y="104.5" width="13" height="13" stroke="#232323"/>
<rect id="Rectangle 170" x="168.5" y="78.5" width="13" height="13" stroke="#232323"/>
<rect id="Rectangle 171" x="56.5" y="78.5" width="13" height="13" stroke="#232323"/>
<rect id="Rectangle 172" x="112.5" y="78.5" width="13" height="13" stroke="#232323"/>
<rect id="Rectangle 173" x="0.5" y="78.5" width="13" height="13" stroke="#232323"/>
<rect id="Rectangle 174" x="140.5" y="78.5" width="13" height="13" stroke="#232323"/>
<rect id="Rectangle 175" x="28.5" y="78.5" width="13" height="13" stroke="#232323"/>
<rect id="Rectangle 176" x="84.5" y="78.5" width="13" height="13" stroke="#232323"/>
<rect id="Rectangle 163" x="168.5" y="52.5" width="13" height="13" stroke="#232323"/>
<rect id="Rectangle 157" x="56.5" y="26.5" width="13" height="13" stroke="#232323"/>
<rect id="Rectangle 164" x="56.5" y="52.5" width="13" height="13" stroke="#232323"/>
<rect id="Rectangle 158" x="112.5" y="26.5" width="13" height="13" stroke="#232323"/>
<rect id="Rectangle 165" x="112.5" y="52.5" width="13" height="13" stroke="#232323"/>
<rect id="Rectangle 166" x="0.5" y="52.5" width="13" height="13" stroke="#232323"/>
<rect id="Rectangle 160" x="140.5" y="26.5" width="13" height="13" stroke="#232323"/>
<rect id="Rectangle 167" x="140.5" y="52.5" width="13" height="13" stroke="#232323"/>
<rect id="Rectangle 161" x="28.5" y="26.5" width="13" height="13" stroke="#232323"/>
<rect id="Rectangle 168" x="28.5" y="52.5" width="13" height="13" stroke="#232323"/>
<rect id="Rectangle 162" x="84.5" y="26.5" width="13" height="13" stroke="#232323"/>
<rect id="Rectangle 169" x="84.5" y="52.5" width="13" height="13" stroke="#232323"/>
<rect id="Rectangle 153" x="56.5" y="0.5" width="13" height="13" stroke="#232323"/>
<rect id="Rectangle 151" x="112.5" y="0.5" width="13" height="13" stroke="#232323"/>
<rect id="Rectangle 152" x="84.5" y="0.5" width="13" height="13" stroke="#232323"/>
</g>
</g>
</svg>
