<svg width="182" height="170" viewBox="0 0 182 170" fill="none" xmlns="http://www.w3.org/2000/svg">
<rect x="168.5" y="156.5" width="13" height="13" stroke="#232323"/>
<rect x="56.5" y="156.5" width="13" height="13" stroke="#232323"/>
<rect x="112.5" y="156.5" width="13" height="13" stroke="#232323"/>
<rect x="0.5" y="156.5" width="13" height="13" stroke="#232323"/>
<rect x="140.5" y="156.5" width="13" height="13" stroke="#232323"/>
<rect x="28.5" y="156.5" width="13" height="13" stroke="#232323"/>
<rect x="84.5" y="156.5" width="13" height="13" stroke="#232323"/>
<rect x="168.5" y="130.5" width="13" height="13" stroke="#232323"/>
<rect x="56.5" y="130.5" width="13" height="13" stroke="#232323"/>
<rect x="112.5" y="130.5" width="13" height="13" stroke="#232323"/>
<rect x="0.5" y="130.5" width="13" height="13" stroke="#232323"/>
<rect x="140.5" y="130.5" width="13" height="13" stroke="#232323"/>
<rect x="28.5" y="130.5" width="13" height="13" stroke="#232323"/>
<rect x="84.5" y="130.5" width="13" height="13" stroke="#232323"/>
<rect x="168.5" y="104.5" width="13" height="13" stroke="#232323"/>
<rect x="56.5" y="104.5" width="13" height="13" stroke="#232323"/>
<rect x="112.5" y="104.5" width="13" height="13" stroke="#232323"/>
<rect x="0.5" y="104.5" width="13" height="13" stroke="#232323"/>
<rect x="140.5" y="104.5" width="13" height="13" stroke="#232323"/>
<rect x="28.5" y="104.5" width="13" height="13" stroke="#232323"/>
<rect x="84.5" y="104.5" width="13" height="13" stroke="#232323"/>
<rect x="168.5" y="78.5" width="13" height="13" stroke="#232323"/>
<rect x="56.5" y="78.5" width="13" height="13" stroke="#232323"/>
<rect x="112.5" y="78.5" width="13" height="13" stroke="#232323"/>
<rect x="0.5" y="78.5" width="13" height="13" stroke="#232323"/>
<rect x="140.5" y="78.5" width="13" height="13" stroke="#232323"/>
<rect x="28.5" y="78.5" width="13" height="13" stroke="#232323"/>
<rect x="84.5" y="78.5" width="13" height="13" stroke="#232323"/>
<rect x="168.5" y="26.5" width="13" height="13" stroke="#232323"/>
<rect x="168.5" y="52.5" width="13" height="13" stroke="#232323"/>
<rect x="56.5" y="26.5" width="13" height="13" stroke="#232323"/>
<rect x="56.5" y="52.5" width="13" height="13" stroke="#232323"/>
<rect x="112.5" y="26.5" width="13" height="13" stroke="#232323"/>
<rect x="112.5" y="52.5" width="13" height="13" stroke="#232323"/>
<rect x="0.5" y="26.5" width="13" height="13" stroke="#232323"/>
<rect x="0.5" y="52.5" width="13" height="13" stroke="#232323"/>
<rect x="140.5" y="26.5" width="13" height="13" stroke="#232323"/>
<rect x="140.5" y="52.5" width="13" height="13" stroke="#232323"/>
<rect x="28.5" y="26.5" width="13" height="13" stroke="#232323"/>
<rect x="28.5" y="52.5" width="13" height="13" stroke="#232323"/>
<rect x="84.5" y="26.5" width="13" height="13" stroke="#232323"/>
<rect x="84.5" y="52.5" width="13" height="13" stroke="#232323"/>
<rect x="168.5" y="0.5" width="13" height="13" stroke="#232323"/>
<rect x="56.5" y="0.5" width="13" height="13" stroke="#232323"/>
<rect x="112.5" y="0.5" width="13" height="13" stroke="#232323"/>
<rect x="0.5" y="0.5" width="13" height="13" stroke="#232323"/>
<rect x="140.5" y="0.5" width="13" height="13" stroke="#232323"/>
<rect x="28.5" y="0.5" width="13" height="13" stroke="#232323"/>
<rect x="84.5" y="0.5" width="13" height="13" stroke="#232323"/>
</svg>
